<svg width="220" height="64" viewBox="0 0 220 64" fill="none" xmlns="http://www.w3.org/2000/svg">
  <g fill="#36d46c">
    <rect x="0" y="0" width="8" height="8" opacity="0.85"/><rect x="12" y="0" width="8" height="8" opacity="0.25"/><rect x="24" y="0" width="8" height="8" opacity="0.85"/><rect x="36" y="0" width="8" height="8" opacity="0.85"/><rect x="48" y="0" width="8" height="8" opacity="0.25"/><rect x="60" y="0" width="8" height="8" opacity="0.85"/><rect x="72" y="0" width="8" height="8" opacity="0.25"/><rect x="84" y="0" width="8" height="8" opacity="0.85"/><rect x="96" y="0" width="8" height="8" opacity="0.25"/><rect x="108" y="0" width="8" height="8" opacity="0.85"/><rect x="120" y="0" width="8" height="8" opacity="0.85"/><rect x="132" y="0" width="8" height="8" opacity="0.25"/><rect x="144" y="0" width="8" height="8" opacity="0.85"/><rect x="156" y="0" width="8" height="8" opacity="0.25"/><rect x="168" y="0" width="8" height="8" opacity="0.85"/><rect x="180" y="0" width="8" height="8" opacity="0.25"/><rect x="192" y="0" width="8" height="8" opacity="0.85"/><rect x="204" y="0" width="8" height="8" opacity="0.85"/>
    <rect x="0" y="14" width="8" height="8" opacity="0.25"/><rect x="12" y="14" width="8" height="8" opacity="0.85"/><rect x="24" y="14" width="8" height="8" opacity="0.25"/><rect x="36" y="14" width="8" height="8" opacity="0.25"/><rect x="48" y="14" width="8" height="8" opacity="0.85"/><rect x="60" y="14" width="8" height="8" opacity="0.25"/><rect x="72" y="14" width="8" height="8" opacity="0.85"/><rect x="84" y="14" width="8" height="8" opacity="0.25"/><rect x="96" y="14" width="8" height="8" opacity="0.85"/><rect x="108" y="14" width="8" height="8" opacity="0.25"/><rect x="120" y="14" width="8" height="8" opacity="0.25"/><rect x="132" y="14" width="8" height="8" opacity="0.85"/><rect x="144" y="14" width="8" height="8" opacity="0.25"/><rect x="156" y="14" width="8" height="8" opacity="0.85"/><rect x="168" y="14" width="8" height="8" opacity="0.25"/><rect x="180" y="14" width="8" height="8" opacity="0.85"/><rect x="192" y="14" width="8" height="8" opacity="0.25"/><rect x="204" y="14" width="8" height="8" opacity="0.25"/>
    <rect x="0" y="28" width="8" height="8" opacity="0.85"/><rect x="12" y="28" width="8" height="8" opacity="0.85"/><rect x="24" y="28" width="8" height="8" opacity="0.25"/><rect x="36" y="28" width="8" height="8" opacity="0.85"/><rect x="48" y="28" width="8" height="8" opacity="0.25"/><rect x="60" y="28" width="8" height="8" opacity="0.85"/><rect x="72" y="28" width="8" height="8" opacity="0.25"/><rect x="84" y="28" width="8" height="8" opacity="0.85"/><rect x="96" y="28" width="8" height="8" opacity="0.85"/><rect x="108" y="28" width="8" height="8" opacity="0.25"/><rect x="120" y="28" width="8" height="8" opacity="0.85"/><rect x="132" y="28" width="8" height="8" opacity="0.25"/><rect x="144" y="28" width="8" height="8" opacity="0.85"/><rect x="156" y="28" width="8" height="8" opacity="0.25"/><rect x="168" y="28" width="8" height="8" opacity="0.25"/><rect x="180" y="28" width="8" height="8" opacity="0.85"/><rect x="192" y="28" width="8" height="8" opacity="0.85"/><rect x="204" y="28" width="8" height="8" opacity="0.25"/>
    <rect x="0" y="42" width="8" height="8" opacity="0.25"/><rect x="12" y="42" width="8" height="8" opacity="0.85"/><rect x="24" y="42" width="8" height="8" opacity="0.85"/><rect x="36" y="42" width="8" height="8" opacity="0.25"/><rect x="48" y="42" width="8" height="8" opacity="0.85"/><rect x="60" y="42" width="8" height="8" opacity="0.85"/><rect x="72" y="42" width="8" height="8" opacity="0.25"/><rect x="84" y="42" width="8" height="8" opacity="0.25"/><rect x="96" y="42" width="8" height="8" opacity="0.85"/><rect x="108" y="42" width="8" height="8" opacity="0.85"/><rect x="120" y="42" width="8" height="8" opacity="0.25"/><rect x="132" y="42" width="8" height="8" opacity="0.85"/><rect x="144" y="42" width="8" height="8" opacity="0.25"/><rect x="156" y="42" width="8" height="8" opacity="0.85"/><rect x="168" y="42" width="8" height="8" opacity="0.85"/><rect x="180" y="42" width="8" height="8" opacity="0.25"/><rect x="192" y="42" width="8" height="8" opacity="0.85"/><rect x="204" y="42" width="8" height="8" opacity="0.25"/>
  </g>
</svg>
