<svg width="28" height="28" viewBox="0 0 28 28" fill="none" xmlns="http://www.w3.org/2000/svg">
  <g fill="#f4f4f2">
    <rect x="3" y="3" width="2.4" height="2.4"/><rect x="8" y="3" width="2.4" height="2.4"/><rect x="13" y="3" width="2.4" height="2.4"/><rect x="18" y="3" width="2.4" height="2.4"/><rect x="23" y="3" width="2.4" height="2.4"/>
    <rect x="3" y="8" width="2.4" height="2.4"/><rect x="23" y="8" width="2.4" height="2.4"/>
    <rect x="3" y="13" width="2.4" height="2.4"/><rect x="13" y="13" width="2.4" height="2.4" fill="#ff3b1f"/><rect x="23" y="13" width="2.4" height="2.4"/>
    <rect x="3" y="18" width="2.4" height="2.4"/><rect x="23" y="18" width="2.4" height="2.4"/>
    <rect x="3" y="23" width="2.4" height="2.4"/><rect x="8" y="23" width="2.4" height="2.4"/><rect x="13" y="23" width="2.4" height="2.4"/><rect x="18" y="23" width="2.4" height="2.4"/><rect x="23" y="23" width="2.4" height="2.4"/>
  </g>
</svg>
