<svg width="112" height="112" viewBox="0 0 112 112" fill="none" xmlns="http://www.w3.org/2000/svg">
  <g fill="#a7a7aa" opacity=".7">
    <circle cx="8" cy="8" r="1.2"/><circle cx="24" cy="8" r="1.2"/><circle cx="40" cy="8" r="1.2"/><circle cx="56" cy="8" r="1.2"/><circle cx="72" cy="8" r="1.2"/><circle cx="88" cy="8" r="1.2"/><circle cx="104" cy="8" r="1.2"/>
    <circle cx="8" cy="24" r="1.2"/><circle cx="24" cy="24" r="1.2"/><circle cx="40" cy="24" r="1.2"/><circle cx="56" cy="24" r="1.2"/><circle cx="72" cy="24" r="1.2"/><circle cx="88" cy="24" r="1.2"/><circle cx="104" cy="24" r="1.2"/>
    <circle cx="8" cy="40" r="1.2"/><circle cx="24" cy="40" r="1.2"/><circle cx="40" cy="40" r="1.2"/><circle cx="56" cy="40" r="1.2"/><circle cx="72" cy="40" r="1.2"/><circle cx="88" cy="40" r="1.2"/><circle cx="104" cy="40" r="1.2"/>
    <circle cx="8" cy="56" r="1.2"/><circle cx="24" cy="56" r="1.2"/><circle cx="40" cy="56" r="1.2"/><circle cx="56" cy="56" r="1.2"/><circle cx="72" cy="56" r="1.2"/><circle cx="88" cy="56" r="1.2"/><circle cx="104" cy="56" r="1.2"/>
    <circle cx="8" cy="72" r="1.2"/><circle cx="24" cy="72" r="1.2"/><circle cx="40" cy="72" r="1.2"/><circle cx="56" cy="72" r="1.2"/><circle cx="72" cy="72" r="1.2"/><circle cx="88" cy="72" r="1.2"/><circle cx="104" cy="72" r="1.2"/>
    <circle cx="8" cy="88" r="1.2"/><circle cx="24" cy="88" r="1.2"/><circle cx="40" cy="88" r="1.2"/><circle cx="56" cy="88" r="1.2"/><circle cx="72" cy="88" r="1.2"/><circle cx="88" cy="88" r="1.2"/><circle cx="104" cy="88" r="1.2"/>
    <circle cx="8" cy="104" r="1.2"/><circle cx="24" cy="104" r="1.2"/><circle cx="40" cy="104" r="1.2"/><circle cx="56" cy="104" r="1.2"/><circle cx="72" cy="104" r="1.2"/><circle cx="88" cy="104" r="1.2"/><circle cx="104" cy="104" r="1.2"/>
  </g>
</svg>
