<svg width="48" height="48" viewBox="0 0 48 48" fill="none" xmlns="http://www.w3.org/2000/svg">
  <path d="M17.5 19.5c1.6-4.1 4.1-6.2 6.5-6.2s4.9 2.1 6.5 6.2" stroke="#f4f4f2" stroke-width="1.7" stroke-linecap="round"/>
  <path d="M14.5 21.8c2.1-2.5 5.4-3.9 9.5-3.9s7.4 1.4 9.5 3.9" stroke="#f4f4f2" stroke-width="1.7" stroke-linecap="round"/>
  <path d="M16 23.5v7.8c0 4.1 3.5 7.2 8 7.2s8-3.1 8-7.2v-7.8" stroke="#a7a7aa" stroke-width="1.7" stroke-linecap="round"/>
  <path d="M18.5 31.5c1.5 1.8 3.2 2.7 5.5 2.7s4-.9 5.5-2.7" stroke="#f4f4f2" stroke-width="1.5" stroke-linecap="round"/>
  <path d="M12 25.5c-2.6.3-4.2 1.9-4.2 4.1M36 25.5c2.6.3 4.2 1.9 4.2 4.1" stroke="#a7a7aa" stroke-width="1.5" stroke-linecap="round"/>
  <path d="M21 38.2v4.2M27 38.2v4.2" stroke="#f4f4f2" stroke-width="1.5" stroke-linecap="round"/>
  <path d="M21 25.6h.01M27 25.6h.01" stroke="#f4f4f2" stroke-width="2.8" stroke-linecap="round"/>
</svg>
