<svg width="180" height="58" viewBox="0 0 180 58" fill="none" xmlns="http://www.w3.org/2000/svg">
  <g fill="#f4f4f2">
    <g transform="translate(0 4)">
      <rect width="5" height="5"/><rect y="8" width="5" height="5"/><rect y="16" width="5" height="5"/><rect y="24" width="5" height="5"/><rect y="32" width="5" height="5"/><rect y="40" width="5" height="5"/>
      <rect x="32" width="5" height="5"/><rect x="32" y="8" width="5" height="5"/><rect x="32" y="16" width="5" height="5"/><rect x="32" y="24" width="5" height="5"/><rect x="32" y="32" width="5" height="5"/><rect x="32" y="40" width="5" height="5"/>
      <rect x="8" y="14" width="5" height="5"/><rect x="16" y="22" width="5" height="5"/><rect x="24" y="30" width="5" height="5"/>
    </g>
    <g transform="translate(50 4)">
      <rect x="8" width="5" height="5"/><rect x="16" width="5" height="5"/><rect x="24" width="5" height="5"/>
      <rect y="8" width="5" height="5"/><rect x="32" y="8" width="5" height="5"/><rect y="16" width="5" height="5"/><rect x="32" y="16" width="5" height="5"/>
      <rect y="24" width="5" height="5"/><rect x="8" y="24" width="5" height="5"/><rect x="16" y="24" width="5" height="5"/><rect x="24" y="24" width="5" height="5"/><rect x="32" y="24" width="5" height="5"/>
      <rect y="32" width="5" height="5"/><rect x="32" y="32" width="5" height="5"/><rect y="40" width="5" height="5"/><rect x="32" y="40" width="5" height="5"/>
    </g>
    <g transform="translate(100 4)">
      <rect width="5" height="5"/><rect y="8" width="5" height="5"/><rect y="16" width="5" height="5"/><rect y="24" width="5" height="5"/><rect y="32" width="5" height="5"/><rect y="40" width="5" height="5"/>
      <rect x="8" width="5" height="5"/><rect x="16" width="5" height="5"/><rect x="24" width="5" height="5"/><rect x="32" y="8" width="5" height="5"/><rect x="32" y="16" width="5" height="5"/>
      <rect x="8" y="24" width="5" height="5"/><rect x="16" y="24" width="5" height="5"/><rect x="24" y="24" width="5" height="5"/><rect x="16" y="32" width="5" height="5"/><rect x="24" y="40" width="5" height="5"/>
    </g>
    <g transform="translate(150 4)">
      <rect x="8" width="5" height="5"/><rect x="16" width="5" height="5"/><rect x="24" width="5" height="5"/>
      <rect y="8" width="5" height="5"/><rect x="32" y="8" width="5" height="5"/><rect y="16" width="5" height="5"/><rect y="24" width="5" height="5"/><rect y="32" width="5" height="5"/><rect x="32" y="32" width="5" height="5"/>
      <rect x="8" y="40" width="5" height="5"/><rect x="16" y="40" width="5" height="5"/><rect x="24" y="40" width="5" height="5"/>
    </g>
  </g>
</svg>
